<?xml version="1.0" encoding="UTF-8"?>
<!DOCTYPE svg PUBLIC "-//W3C//DTD SVG 1.1//EN" "http://www.w3.org/Graphics/SVG/1.1/DTD/svg11.dtd">
<!-- Creator: CorelDRAW 2019 (64-Bit) -->
<svg xmlns="http://www.w3.org/2000/svg" xml:space="preserve" width="2.39824in" height="2.98386in" version="1.1" style="shape-rendering:geometricPrecision; text-rendering:geometricPrecision; image-rendering:optimizeQuality; fill-rule:evenodd; clip-rule:evenodd"
viewBox="0 0 152.46 189.69"
 xmlns:xlink="http://www.w3.org/1999/xlink"
 xmlns:xodm="http://www.corel.com/coreldraw/odm/2003">
 <defs>
  <style type="text/css">
   <![CDATA[
    .fil0 {fill:#00A0B6}
   ]]>
  </style>
 </defs>
 <g id="Layer_x0020_1">
  <metadata id="CorelCorpID_0Corel-Layer"/>
  <path class="fil0" d="M56.12 99.76l0.77 -0.47c-4.31,-2.26 -8.08,-5.69 -10.78,-10.16 -7.91,-13.07 -3.73,-30.09 9.34,-38 9.85,-5.96 21.92,-5.06 30.67,1.34l23.96 14.63 2.19 -1.33c13.38,-8.1 17.7,-25.67 9.6,-39.06l0 0c-8.1,-13.38 -25.67,-17.7 -39.06,-9.6l-56.15 33.98c-13.38,8.1 -17.7,25.67 -9.6,39.06l0 0c4.67,7.72 14.07,10.1 23.14,15.65 0.74,0.46 2.95,1.65 3.72,1.19l12.2 -7.24zm19.97 -12.09l14.08 -8.52 7.28 -4.41 -21.92 -13.06c-4.12,-1.81 -9.03,-1.64 -13.18,0.86 -6.77,4.1 -8.94,12.91 -4.84,19.68 3.88,6.41 11.97,8.69 18.57,5.45zm21.79 51.64c-9.85,5.96 -21.92,5.06 -30.67,-1.34l-24.82 -15.16 -2.16 1.31c-13.38,8.1 -17.7,25.67 -9.6,39.06l0 0c8.1,13.38 25.67,17.7 39.06,9.6l56.15 -33.98c13.38,-8.1 17.7,-25.67 9.6,-39.06l0 0c-3.83,-6.33 -25.82,-16.68 -26.31,-16.89l-12.83 8.22c4.37,2.26 8.19,5.72 10.93,10.24 7.91,13.07 3.73,30.09 -9.34,38zm-42 -23.69l0 0zm35.09 12.27c-4.14,2.51 -9.05,2.67 -13.18,0.86l-21.92 -13.06 20.25 -12.32c6.77,-4.1 15.58,-1.93 19.68,4.84 4.1,6.77 1.93,15.58 -4.84,19.68zm31.69 -53.06c9.65,2.74 18.33,8.97 23.9,18.18l0 0c11.69,19.32 5.45,44.69 -13.87,56.39l-56.8 34.38c-19.32,11.69 -44.69,5.45 -56.39,-13.87l0 0c-11.08,-18.3 -6.06,-42.04 10.93,-54.43 -9.87,-2.76 -18.75,-9.11 -24.44,-18.51l0 0c-11.88,-19.63 -5.54,-45.4 14.09,-57.28l55.69 -33.71c19.63,-11.88 45.4,-5.54 57.28,14.09l0 0c11.1,18.34 6.29,42.04 -10.39,54.76z"/>
 </g>
</svg>
