<svg width="473" height="504" viewBox="0 0 473 504" fill="none" xmlns="http://www.w3.org/2000/svg">
<rect x="1" y="1" width="471" height="502" rx="9" fill="#224957" stroke="white" stroke-width="2" stroke-dasharray="4 4"/>
<path d="M167.706 263.2H171.696C172.732 263.2 173.647 263.41 174.44 263.83C175.234 264.241 175.85 264.819 176.288 265.566C176.727 266.303 176.946 267.148 176.946 268.1C176.946 269.052 176.727 269.901 176.288 270.648C175.85 271.385 175.234 271.964 174.44 272.384C173.647 272.795 172.732 273 171.696 273H167.706V263.2ZM171.64 272.104C172.499 272.104 173.25 271.936 173.894 271.6C174.538 271.255 175.038 270.783 175.392 270.186C175.747 269.579 175.924 268.884 175.924 268.1C175.924 267.316 175.747 266.625 175.392 266.028C175.038 265.421 174.538 264.95 173.894 264.614C173.25 264.269 172.499 264.096 171.64 264.096H168.742V272.104H171.64ZM180.015 267.078C180.248 266.583 180.593 266.21 181.051 265.958C181.517 265.706 182.091 265.58 182.773 265.58V266.546L182.535 266.532C181.76 266.532 181.153 266.77 180.715 267.246C180.276 267.722 180.057 268.389 180.057 269.248V273H179.063V265.636H180.015V267.078ZM187.514 273.07C186.805 273.07 186.165 272.911 185.596 272.594C185.027 272.267 184.579 271.819 184.252 271.25C183.925 270.681 183.762 270.037 183.762 269.318C183.762 268.599 183.925 267.955 184.252 267.386C184.579 266.817 185.027 266.373 185.596 266.056C186.165 265.739 186.805 265.58 187.514 265.58C188.223 265.58 188.863 265.739 189.432 266.056C190.001 266.373 190.445 266.817 190.762 267.386C191.089 267.955 191.252 268.599 191.252 269.318C191.252 270.037 191.089 270.681 190.762 271.25C190.445 271.819 190.001 272.267 189.432 272.594C188.863 272.911 188.223 273.07 187.514 273.07ZM187.514 272.188C188.037 272.188 188.503 272.071 188.914 271.838C189.334 271.595 189.661 271.255 189.894 270.816C190.127 270.377 190.244 269.878 190.244 269.318C190.244 268.758 190.127 268.259 189.894 267.82C189.661 267.381 189.334 267.045 188.914 266.812C188.503 266.569 188.037 266.448 187.514 266.448C186.991 266.448 186.52 266.569 186.1 266.812C185.689 267.045 185.363 267.381 185.12 267.82C184.887 268.259 184.77 268.758 184.77 269.318C184.77 269.878 184.887 270.377 185.12 270.816C185.363 271.255 185.689 271.595 186.1 271.838C186.52 272.071 186.991 272.188 187.514 272.188ZM197.076 265.58C197.766 265.58 198.392 265.739 198.952 266.056C199.512 266.364 199.95 266.803 200.268 267.372C200.585 267.941 200.744 268.59 200.744 269.318C200.744 270.055 200.585 270.709 200.268 271.278C199.95 271.847 199.512 272.291 198.952 272.608C198.401 272.916 197.776 273.07 197.076 273.07C196.478 273.07 195.937 272.949 195.452 272.706C194.976 272.454 194.584 272.09 194.276 271.614V275.716H193.282V265.636H194.234V267.092C194.532 266.607 194.924 266.233 195.41 265.972C195.904 265.711 196.46 265.58 197.076 265.58ZM197.006 272.188C197.519 272.188 197.986 272.071 198.406 271.838C198.826 271.595 199.152 271.255 199.386 270.816C199.628 270.377 199.75 269.878 199.75 269.318C199.75 268.758 199.628 268.263 199.386 267.834C199.152 267.395 198.826 267.055 198.406 266.812C197.986 266.569 197.519 266.448 197.006 266.448C196.483 266.448 196.012 266.569 195.592 266.812C195.181 267.055 194.854 267.395 194.612 267.834C194.378 268.263 194.262 268.758 194.262 269.318C194.262 269.878 194.378 270.377 194.612 270.816C194.854 271.255 195.181 271.595 195.592 271.838C196.012 272.071 196.483 272.188 197.006 272.188ZM209.01 265.58C209.971 265.58 210.709 265.823 211.222 266.308C211.735 266.784 211.992 267.493 211.992 268.436V273H211.04V271.852C210.816 272.235 210.485 272.533 210.046 272.748C209.617 272.963 209.103 273.07 208.506 273.07C207.685 273.07 207.031 272.874 206.546 272.482C206.061 272.09 205.818 271.572 205.818 270.928C205.818 270.303 206.042 269.799 206.49 269.416C206.947 269.033 207.671 268.842 208.66 268.842H210.998V268.394C210.998 267.759 210.821 267.279 210.466 266.952C210.111 266.616 209.593 266.448 208.912 266.448C208.445 266.448 207.997 266.527 207.568 266.686C207.139 266.835 206.77 267.045 206.462 267.316L206.014 266.574C206.387 266.257 206.835 266.014 207.358 265.846C207.881 265.669 208.431 265.58 209.01 265.58ZM208.66 272.286C209.22 272.286 209.701 272.16 210.102 271.908C210.503 271.647 210.802 271.273 210.998 270.788V269.584H208.688C207.428 269.584 206.798 270.023 206.798 270.9C206.798 271.329 206.961 271.67 207.288 271.922C207.615 272.165 208.072 272.286 208.66 272.286ZM218.444 265.58C219.368 265.58 220.1 265.851 220.642 266.392C221.192 266.924 221.468 267.703 221.468 268.73V273H220.474V268.828C220.474 268.063 220.282 267.479 219.9 267.078C219.517 266.677 218.971 266.476 218.262 266.476C217.468 266.476 216.838 266.714 216.372 267.19C215.914 267.657 215.686 268.305 215.686 269.136V273H214.692V265.636H215.644V266.994C215.914 266.546 216.288 266.201 216.764 265.958C217.249 265.706 217.809 265.58 218.444 265.58ZM227.83 265.636H228.824V273H227.83V265.636ZM228.334 264.026C228.129 264.026 227.956 263.956 227.816 263.816C227.676 263.676 227.606 263.508 227.606 263.312C227.606 263.125 227.676 262.962 227.816 262.822C227.956 262.682 228.129 262.612 228.334 262.612C228.54 262.612 228.712 262.682 228.852 262.822C228.992 262.953 229.062 263.111 229.062 263.298C229.062 263.503 228.992 263.676 228.852 263.816C228.712 263.956 228.54 264.026 228.334 264.026ZM240.774 265.58C241.698 265.58 242.421 265.846 242.944 266.378C243.476 266.91 243.742 267.694 243.742 268.73V273H242.748V268.828C242.748 268.063 242.561 267.479 242.188 267.078C241.824 266.677 241.306 266.476 240.634 266.476C239.869 266.476 239.267 266.714 238.828 267.19C238.389 267.657 238.17 268.305 238.17 269.136V273H237.176V268.828C237.176 268.063 236.989 267.479 236.616 267.078C236.252 266.677 235.729 266.476 235.048 266.476C234.292 266.476 233.69 266.714 233.242 267.19C232.803 267.657 232.584 268.305 232.584 269.136V273H231.59V265.636H232.542V266.98C232.803 266.532 233.167 266.187 233.634 265.944C234.101 265.701 234.637 265.58 235.244 265.58C235.86 265.58 236.392 265.711 236.84 265.972C237.297 266.233 237.638 266.621 237.862 267.134C238.133 266.649 238.52 266.271 239.024 266C239.537 265.72 240.121 265.58 240.774 265.58ZM249.014 265.58C249.975 265.58 250.712 265.823 251.226 266.308C251.739 266.784 251.996 267.493 251.996 268.436V273H251.044V271.852C250.82 272.235 250.488 272.533 250.05 272.748C249.62 272.963 249.107 273.07 248.51 273.07C247.688 273.07 247.035 272.874 246.55 272.482C246.064 272.09 245.822 271.572 245.822 270.928C245.822 270.303 246.046 269.799 246.494 269.416C246.951 269.033 247.674 268.842 248.664 268.842H251.002V268.394C251.002 267.759 250.824 267.279 250.47 266.952C250.115 266.616 249.597 266.448 248.916 266.448C248.449 266.448 248.001 266.527 247.572 266.686C247.142 266.835 246.774 267.045 246.466 267.316L246.018 266.574C246.391 266.257 246.839 266.014 247.362 265.846C247.884 265.669 248.435 265.58 249.014 265.58ZM248.664 272.286C249.224 272.286 249.704 272.16 250.106 271.908C250.507 271.647 250.806 271.273 251.002 270.788V269.584H248.692C247.432 269.584 246.802 270.023 246.802 270.9C246.802 271.329 246.965 271.67 247.292 271.922C247.618 272.165 248.076 272.286 248.664 272.286ZM261.541 265.636V272.104C261.541 273.355 261.233 274.279 260.617 274.876C260.01 275.483 259.091 275.786 257.859 275.786C257.178 275.786 256.529 275.683 255.913 275.478C255.306 275.282 254.812 275.007 254.429 274.652L254.933 273.896C255.288 274.213 255.717 274.461 256.221 274.638C256.734 274.815 257.271 274.904 257.831 274.904C258.764 274.904 259.45 274.685 259.889 274.246C260.328 273.817 260.547 273.145 260.547 272.23V271.292C260.239 271.759 259.833 272.113 259.329 272.356C258.834 272.599 258.284 272.72 257.677 272.72C256.986 272.72 256.356 272.571 255.787 272.272C255.227 271.964 254.784 271.539 254.457 270.998C254.14 270.447 253.981 269.827 253.981 269.136C253.981 268.445 254.14 267.829 254.457 267.288C254.784 266.747 255.227 266.327 255.787 266.028C256.347 265.729 256.977 265.58 257.677 265.58C258.302 265.58 258.867 265.706 259.371 265.958C259.875 266.21 260.281 266.574 260.589 267.05V265.636H261.541ZM257.775 271.838C258.307 271.838 258.788 271.726 259.217 271.502C259.646 271.269 259.978 270.947 260.211 270.536C260.454 270.125 260.575 269.659 260.575 269.136C260.575 268.613 260.454 268.151 260.211 267.75C259.978 267.339 259.646 267.022 259.217 266.798C258.797 266.565 258.316 266.448 257.775 266.448C257.243 266.448 256.762 266.56 256.333 266.784C255.913 267.008 255.582 267.325 255.339 267.736C255.106 268.147 254.989 268.613 254.989 269.136C254.989 269.659 255.106 270.125 255.339 270.536C255.582 270.947 255.913 271.269 256.333 271.502C256.762 271.726 257.243 271.838 257.775 271.838ZM270.733 269.626H264.573C264.629 270.391 264.923 271.012 265.455 271.488C265.987 271.955 266.659 272.188 267.471 272.188C267.928 272.188 268.348 272.109 268.731 271.95C269.113 271.782 269.445 271.539 269.725 271.222L270.285 271.866C269.958 272.258 269.547 272.557 269.053 272.762C268.567 272.967 268.031 273.07 267.443 273.07C266.687 273.07 266.015 272.911 265.427 272.594C264.848 272.267 264.395 271.819 264.069 271.25C263.742 270.681 263.579 270.037 263.579 269.318C263.579 268.599 263.733 267.955 264.041 267.386C264.358 266.817 264.787 266.373 265.329 266.056C265.879 265.739 266.495 265.58 267.177 265.58C267.858 265.58 268.469 265.739 269.011 266.056C269.552 266.373 269.977 266.817 270.285 267.386C270.593 267.946 270.747 268.59 270.747 269.318L270.733 269.626ZM267.177 266.434C266.467 266.434 265.87 266.663 265.385 267.12C264.909 267.568 264.638 268.156 264.573 268.884H269.795C269.729 268.156 269.454 267.568 268.969 267.12C268.493 266.663 267.895 266.434 267.177 266.434ZM280.186 265.58C281.11 265.58 281.843 265.851 282.384 266.392C282.935 266.924 283.21 267.703 283.21 268.73V273H282.216V268.828C282.216 268.063 282.025 267.479 281.642 267.078C281.259 266.677 280.713 266.476 280.004 266.476C279.211 266.476 278.581 266.714 278.114 267.19C277.657 267.657 277.428 268.305 277.428 269.136V273H276.434V262.612H277.428V266.924C277.699 266.495 278.072 266.163 278.548 265.93C279.024 265.697 279.57 265.58 280.186 265.58ZM292.348 269.626H286.188C286.244 270.391 286.538 271.012 287.07 271.488C287.602 271.955 288.274 272.188 289.086 272.188C289.543 272.188 289.963 272.109 290.346 271.95C290.728 271.782 291.06 271.539 291.34 271.222L291.9 271.866C291.573 272.258 291.162 272.557 290.668 272.762C290.182 272.967 289.646 273.07 289.058 273.07C288.302 273.07 287.63 272.911 287.042 272.594C286.463 272.267 286.01 271.819 285.684 271.25C285.357 270.681 285.194 270.037 285.194 269.318C285.194 268.599 285.348 267.955 285.656 267.386C285.973 266.817 286.402 266.373 286.944 266.056C287.494 265.739 288.11 265.58 288.792 265.58C289.473 265.58 290.084 265.739 290.626 266.056C291.167 266.373 291.592 266.817 291.9 267.386C292.208 267.946 292.362 268.59 292.362 269.318L292.348 269.626ZM288.792 266.434C288.082 266.434 287.485 266.663 287 267.12C286.524 267.568 286.253 268.156 286.188 268.884H291.41C291.344 268.156 291.069 267.568 290.584 267.12C290.108 266.663 289.51 266.434 288.792 266.434ZM295.337 267.078C295.57 266.583 295.916 266.21 296.373 265.958C296.84 265.706 297.414 265.58 298.095 265.58V266.546L297.857 266.532C297.082 266.532 296.476 266.77 296.037 267.246C295.598 267.722 295.379 268.389 295.379 269.248V273H294.385V265.636H295.337V267.078ZM306.238 269.626H300.078C300.134 270.391 300.428 271.012 300.96 271.488C301.492 271.955 302.164 272.188 302.976 272.188C303.434 272.188 303.854 272.109 304.236 271.95C304.619 271.782 304.95 271.539 305.23 271.222L305.79 271.866C305.464 272.258 305.053 272.557 304.558 272.762C304.073 272.967 303.536 273.07 302.948 273.07C302.192 273.07 301.52 272.911 300.932 272.594C300.354 272.267 299.901 271.819 299.574 271.25C299.248 270.681 299.084 270.037 299.084 269.318C299.084 268.599 299.238 267.955 299.546 267.386C299.864 266.817 300.293 266.373 300.834 266.056C301.385 265.739 302.001 265.58 302.682 265.58C303.364 265.58 303.975 265.739 304.516 266.056C305.058 266.373 305.482 266.817 305.79 267.386C306.098 267.946 306.252 268.59 306.252 269.318L306.238 269.626ZM302.682 266.434C301.973 266.434 301.376 266.663 300.89 267.12C300.414 267.568 300.144 268.156 300.078 268.884H305.3C305.235 268.156 304.96 267.568 304.474 267.12C303.998 266.663 303.401 266.434 302.682 266.434Z" fill="white"/>
<g clip-path="url(#clip0_3_340)">
<path d="M243 239V242H231V239H229V242C229 243.1 229.9 244 231 244H243C244.1 244 245 243.1 245 242V239H243ZM242 235L240.59 233.59L238 236.17V228H236V236.17L233.41 233.59L232 235L237 240L242 235Z" fill="white"/>
</g>
<defs>
<clipPath id="clip0_3_340">
<rect width="24" height="24" fill="white" transform="translate(225 224)"/>
</clipPath>
</defs>
</svg>
